<svg width="100" height="100" viewBox="0 0 824 462" fill="none" xmlns="http://www.w3.org/2000/svg">
<g clip-path="url(#clip0_4_179)">
<mask id="mask0_4_179" style="mask-type:alpha" maskUnits="userSpaceOnUse" x="0" y="49" width="823" height="359">
<rect y="49.2369" width="822.757" height="358.217" fill="url(#paint0_linear_4_179)"/>
</mask>
<g mask="url(#mask0_4_179)">
<path d="M719.638 96.2837L673.134 80.7491L481.616 81.3485L448.463 69.4389L420.412 81.0916L300.545 80.7634L253.05 58.9849H183.989L173.307 80.7562H113.117L0 260.892L125.918 403.023H697.11L823.028 260.892L719.631 96.2766L719.638 96.2837ZM694.206 396.579H128.823L8.03491 260.236L116.692 87.1999H177.339L188.014 65.4285H251.644L299.125 87.1999L421.69 87.5352L448.627 76.3392L480.496 87.7921L672.092 87.1927L715.399 101.657L814.993 260.222L694.206 396.565V396.579Z" fill="url(#paint1_linear_4_179)"/>
</g>
<path d="M815 260.235L694.205 396.572H128.822L8.03467 260.235L116.691 87.1992H177.339L188.014 65.4279H251.644L299.132 87.1992L421.69 87.5417L448.627 76.3457L480.496 87.7986L672.092 87.1992L715.399 101.671L815 260.235Z" fill="url(#paint2_linear_4_179)"/>
<path d="M814.984 260.235L715.404 101.67L672.083 87.2062L480.501 87.7913L448.633 76.3384L421.681 87.5344L299.124 87.2062L251.642 65.4349H188.019L177.344 87.2062H116.704L8.04016 260.235H80.704L135.471 300.945H224.169L237.449 260.235H294.985L308.207 202.635H321.33L339.055 194.914L335.338 234.004L384.346 260.235H814.984Z" fill="#4A357D"/>
<path d="M46.5182 238.963H108.421L119.061 218.555H91.6093L111.033 184.503L142.859 172.915L152.913 153.648L122.621 164.187L138.741 135.923L129.243 121.573H146.933H169.639L176.468 108.478H128.466L46.5182 238.963Z" fill="white"/>
<path d="M201.286 86.6992L165.351 160.027L208.922 185.887L226.019 194.721L200.145 208.771L181.884 256.36H152.578L183.918 183.91L160.505 169.91L116.242 260.213L142.495 279.673H208.736L241.554 179.029L196.705 154.347L220.846 98.5446H242.424L257.11 104.717L236.338 114.415L222.159 151.385L246.328 164.372L268.42 96.618L246.97 86.6992H201.286Z" fill="white"/>
<path d="M282.071 108.477L244.594 238.962H278.039L291.269 181.362H316.901L348.74 167.497L354.642 119.587L330.066 108.477H282.064H282.071ZM325.05 136.299L319.912 164.736H295.094L305.005 121.564H327.711L344.466 128.379L325.05 136.292V136.299Z" fill="white"/>
<path d="M368.643 108.477L357.853 221.929L389.679 238.962H451.582L443.354 119.587L416.652 108.477H368.65H368.643ZM417.102 148.623L417.901 218.547H390.45L394.096 121.564H416.802L434.249 128.379L417.109 148.623H417.102Z" fill="white"/>
<path d="M461.658 119.637L474.609 238.962H508.055L498.485 181.362H524.117L536.505 238.962H569.958L554.951 183.909L535.263 175.575L550.477 167.497L534.386 108.477H486.383L461.658 119.637V119.637ZM520.549 164.736H495.731L491.036 136.449L471.669 128.386L488.56 121.571H511.266L520.549 164.743V164.736Z" fill="white"/>
<path d="M546.794 121.571H569.151L609.047 238.962H642.5L601.483 135.75L578.056 121.414H617.789L612.037 108.477H542.977L546.794 121.571Z" fill="white"/>
<path d="M729.67 164.372L701.448 119.438L668.624 108.477H620.621L644.54 160.026L712.78 185.886L731.419 218.554H703.96L685.899 183.909L649.121 169.909L673.255 221.929L714.607 238.962H776.51L738.868 179.029L670.479 154.346L660.896 135.964L635.713 121.571H676.095L693.099 151.384L729.67 164.372Z" fill="white"/>
<path d="M449.753 92.8422C446.249 96.2602 442.281 99.4285 437.921 102.304C442.688 105.209 447.219 108.52 451.451 112.18C455.04 108.52 458.993 105.209 463.246 102.304C458.38 99.4285 453.856 96.2602 449.753 92.8422Z" fill="#E2D45C"/>
<path d="M84.2391 222.836L104.326 187.613C96.8766 188.463 89.491 189.333 82.1697 190.239L54.2616 234.681H105.825L111.997 222.836H84.2391V222.836Z" fill="url(#paint3_linear_4_179)"/>
<path d="M228.261 176.602C220.283 177.123 212.355 177.679 204.477 178.272L210.999 182.139L232.428 193.207L236.382 181.069L228.261 176.602V176.602ZM203.571 211.774L184.832 260.64H146.064L178.503 185.657L170.696 180.99C166.9 181.319 163.111 181.654 159.343 182.004L121.659 258.892L143.909 275.39H205.626L231.272 196.739L203.571 211.774V211.774Z" fill="url(#paint4_linear_4_179)"/>
<path d="M328.342 171.714L316.019 177.08H287.868L274.638 234.68H250.284L267.631 174.276C287.597 173.227 307.841 172.37 328.342 171.714Z" fill="url(#paint5_linear_4_179)"/>
<path d="M446.994 234.681H390.756L362.385 219.503L367.03 170.701C373.987 170.559 380.966 170.444 387.973 170.352L386.004 222.835H422.232L421.633 170.073C424.837 170.066 428.048 170.059 431.266 170.059C435.034 170.059 438.795 170.066 442.541 170.081L446.994 234.681V234.681Z" fill="url(#paint6_linear_4_179)"/>
<path d="M564.357 234.68H539.967L527.579 177.08H493.434L503.003 234.68H478.449L471.463 170.308C492.357 170.565 513.029 171.029 533.452 171.686L525.31 176.01L551.37 187.042L564.357 234.68V234.68Z" fill="url(#paint7_linear_4_179)"/>
<path d="M612.575 175.253C605.596 174.846 598.582 174.461 591.531 174.104L612.118 234.68H636.194L612.575 175.253Z" fill="url(#paint8_linear_4_179)"/>
<path d="M737.815 185.394C730.658 184.645 723.451 183.917 716.187 183.218L738.793 222.836H701.366L682.856 187.335L659.286 178.358C658.758 178.316 658.237 178.28 657.709 178.244L676.44 218.611L715.452 234.681H768.77L737.815 185.394V185.394Z" fill="url(#paint9_linear_4_179)"/>
<path fill-rule="evenodd" clip-rule="evenodd" d="M341.078 334.983V326.178L316.752 335.226H316.702V344.26H316.752L341.078 353.308V344.488L328.612 339.721L341.078 334.983V334.983Z" fill="#996DFF"/>
<path fill-rule="evenodd" clip-rule="evenodd" d="M481.983 352.851V344.046L494.442 339.307L481.983 334.569V325.764L506.273 334.805H506.33V343.846H506.273L481.983 352.844V352.851ZM471.55 313.326L457.264 359.181H465.749L480.035 313.326H471.55Z" fill="#996DFF"/>
<path fill-rule="evenodd" clip-rule="evenodd" d="M376.823 324.515C379.234 327.169 380.505 330.666 380.355 334.248V353.778H371.87V336.039C371.97 334.062 371.335 332.121 370.101 330.58C368.923 329.21 367.182 328.454 365.377 328.532C360.068 328.532 357.406 332.214 357.406 339.585V353.786H348.922V321.717H357.406V324.614C360.096 321.996 363.75 320.604 367.503 320.761C371 320.611 374.396 321.981 376.815 324.515H376.823Z" fill="white"/>
<path fill-rule="evenodd" clip-rule="evenodd" d="M391.151 308.381V354.236H399.635V308.381H391.151Z" fill="white"/>
<path fill-rule="evenodd" clip-rule="evenodd" d="M447.572 352.558H440.494L433.558 333.67L426.558 352.558H419.493L407.605 320.433H416.667L423.346 339.643L430.232 320.433H436.847L443.733 339.707L450.412 320.433H459.475L447.572 352.558V352.558Z" fill="white"/>
<path d="M34.5883 74.8692C44.1931 51.6708 63.5881 33.3889 92.217 20.5373C119.647 8.2209 154.405 1.37054 195.515 0.185994C279.788 -2.24731 381.523 19.3171 481.96 60.9259C489.181 63.9158 496.338 66.9842 503.417 70.1311L493.406 70.1596C489.11 68.2972 484.778 66.4633 480.411 64.6579C274.636 -20.572 76.3113 -15.2987 38.3203 76.4177C27.3169 102.977 30.949 133.911 46.662 166.536C85.1882 246.585 196.414 336.789 342.612 397.343C356.755 403.201 370.913 408.653 385.049 413.698C470.814 444.325 555.523 459.845 627.394 457.769C667.976 456.599 702.206 449.87 729.151 437.774C756.816 425.358 775.505 407.797 784.703 385.583C793.002 365.539 792.973 343.004 785.702 319.128L788.806 315.624C797.326 341.941 797.212 365.967 788.442 387.132C778.83 410.33 759.442 428.612 730.806 441.464C703.376 453.78 668.625 460.63 627.516 461.815C623.22 461.936 618.881 462 614.5 462C542.05 462 457.898 445.11 373.232 413.698C362.507 409.724 351.782 405.513 341.064 401.075C240.627 359.473 153.442 302.794 95.5708 241.476C72.8147 217.364 55.5747 193.573 44.1502 170.532C41.3958 164.987 38.9839 159.493 36.9145 154.048C25.7613 124.713 24.9764 98.0748 34.5883 74.8692V74.8692Z" fill="url(#paint10_linear_4_179)"/>
<path d="M34.5883 74.8692C44.1931 51.6708 63.5881 33.3889 92.217 20.5373C119.647 8.2209 154.405 1.37054 195.515 0.185994C279.788 -2.24731 381.523 19.3171 481.96 60.9259C489.181 63.9158 496.338 66.9842 503.417 70.1311L493.406 70.1596C489.11 68.2972 484.778 66.4633 480.411 64.6579C274.636 -20.572 76.3113 -15.2987 38.3203 76.4177C27.3169 102.977 30.949 133.911 46.662 166.536C85.1882 246.585 196.414 336.789 342.612 397.343C356.755 403.201 370.913 408.653 385.049 413.698C470.814 444.325 555.523 459.845 627.394 457.769C667.976 456.599 702.206 449.87 729.151 437.774C756.816 425.358 775.505 407.797 784.703 385.583C793.002 365.539 792.973 343.004 785.702 319.128L788.806 315.624C797.326 341.941 797.212 365.967 788.442 387.132C778.83 410.33 759.442 428.612 730.806 441.464C703.376 453.78 668.625 460.63 627.516 461.815C623.22 461.936 618.881 462 614.5 462C542.05 462 457.898 445.11 373.232 413.698C362.507 409.724 351.782 405.513 341.064 401.075C240.627 359.473 153.442 302.794 95.5708 241.476C72.8147 217.364 55.5747 193.573 44.1502 170.532C41.3958 164.987 38.9839 159.493 36.9145 154.048C25.7613 124.713 24.9764 98.0748 34.5883 74.8692V74.8692Z" fill="url(#paint11_radial_4_179)"/>
<path d="M34.5883 74.8692C44.1931 51.6708 63.5881 33.3889 92.217 20.5373C119.647 8.2209 154.405 1.37054 195.515 0.185994C279.788 -2.24731 381.523 19.3171 481.96 60.9259C489.181 63.9158 496.338 66.9842 503.417 70.1311L493.406 70.1596C489.11 68.2972 484.778 66.4633 480.411 64.6579C274.636 -20.572 76.3113 -15.2987 38.3203 76.4177C27.3169 102.977 30.949 133.911 46.662 166.536C85.1882 246.585 196.414 336.789 342.612 397.343C356.755 403.201 370.913 408.653 385.049 413.698C470.814 444.325 555.523 459.845 627.394 457.769C667.976 456.599 702.206 449.87 729.151 437.774C756.816 425.358 775.505 407.797 784.703 385.583C793.002 365.539 792.973 343.004 785.702 319.128L788.806 315.624C797.326 341.941 797.212 365.967 788.442 387.132C778.83 410.33 759.442 428.612 730.806 441.464C703.376 453.78 668.625 460.63 627.516 461.815C623.22 461.936 618.881 462 614.5 462C542.05 462 457.898 445.11 373.232 413.698C362.507 409.724 351.782 405.513 341.064 401.075C240.627 359.473 153.442 302.794 95.5708 241.476C72.8147 217.364 55.5747 193.573 44.1502 170.532C41.3958 164.987 38.9839 159.493 36.9145 154.048C25.7613 124.713 24.9764 98.0748 34.5883 74.8692V74.8692Z" fill="url(#paint12_radial_4_179)"/>
<path d="M34.5883 74.8692C44.1931 51.6708 63.5881 33.3889 92.217 20.5373C119.647 8.2209 154.405 1.37054 195.515 0.185994C279.788 -2.24731 381.523 19.3171 481.96 60.9259C489.181 63.9158 496.338 66.9842 503.417 70.1311L493.406 70.1596C489.11 68.2972 484.778 66.4633 480.411 64.6579C274.636 -20.572 76.3113 -15.2987 38.3203 76.4177C27.3169 102.977 30.949 133.911 46.662 166.536C85.1882 246.585 196.414 336.789 342.612 397.343C356.755 403.201 370.913 408.653 385.049 413.698C470.814 444.325 555.523 459.845 627.394 457.769C667.976 456.599 702.206 449.87 729.151 437.774C756.816 425.358 775.505 407.797 784.703 385.583C793.002 365.539 792.973 343.004 785.702 319.128L788.806 315.624C797.326 341.941 797.212 365.967 788.442 387.132C778.83 410.33 759.442 428.612 730.806 441.464C703.376 453.78 668.625 460.63 627.516 461.815C623.22 461.936 618.881 462 614.5 462C542.05 462 457.898 445.11 373.232 413.698C362.507 409.724 351.782 405.513 341.064 401.075C240.627 359.473 153.442 302.794 95.5708 241.476C72.8147 217.364 55.5747 193.573 44.1502 170.532C41.3958 164.987 38.9839 159.493 36.9145 154.048C25.7613 124.713 24.9764 98.0748 34.5883 74.8692V74.8692Z" fill="url(#paint13_radial_4_179)"/>
<path d="M788.442 74.8692C778.837 51.6708 759.442 33.3889 730.813 20.5373C703.383 8.2209 668.625 1.37054 627.515 0.185994C543.242 -2.24731 441.506 19.3171 341.07 60.9259C333.849 63.9158 326.692 66.9842 319.613 70.1311L329.624 70.1596C333.92 68.2972 338.252 66.4633 342.619 64.6579C548.394 -20.572 746.719 -15.2987 784.71 76.4177C795.713 102.977 792.081 133.911 776.368 166.536C737.842 246.585 626.616 336.789 480.418 397.343C466.275 403.201 452.117 408.653 437.981 413.698C352.216 444.325 267.507 459.845 195.636 457.769C155.054 456.599 120.824 449.87 93.8791 437.774C66.2136 425.358 47.5249 407.797 38.3269 385.583C30.028 365.539 30.0565 343.004 37.3279 319.128L34.2238 315.624C25.7037 341.941 25.8178 365.967 34.5877 387.132C44.1997 410.33 63.5876 428.612 92.2236 441.464C119.654 453.78 154.405 460.63 195.514 461.815C199.81 461.936 204.149 462 208.53 462C280.98 462 365.132 445.11 449.798 413.698C460.523 409.724 471.248 405.513 481.966 401.075C582.403 359.473 669.588 302.794 727.459 241.476C750.215 217.364 767.455 193.573 778.88 170.532C781.634 164.987 784.046 159.493 786.115 154.048C797.269 124.713 798.054 98.0748 788.442 74.8692V74.8692Z" fill="url(#paint14_linear_4_179)"/>
<path d="M788.442 74.8692C778.837 51.6708 759.442 33.3889 730.813 20.5373C703.383 8.2209 668.625 1.37054 627.515 0.185994C543.242 -2.24731 441.506 19.3171 341.07 60.9259C333.849 63.9158 326.692 66.9842 319.613 70.1311L329.624 70.1596C333.92 68.2972 338.252 66.4633 342.619 64.6579C548.394 -20.572 746.719 -15.2987 784.71 76.4177C795.713 102.977 792.081 133.911 776.368 166.536C737.842 246.585 626.616 336.789 480.418 397.343C466.275 403.201 452.117 408.653 437.981 413.698C352.216 444.325 267.507 459.845 195.636 457.769C155.054 456.599 120.824 449.87 93.8791 437.774C66.2136 425.358 47.5249 407.797 38.3269 385.583C30.028 365.539 30.0565 343.004 37.3279 319.128L34.2238 315.624C25.7037 341.941 25.8178 365.967 34.5877 387.132C44.1997 410.33 63.5876 428.612 92.2236 441.464C119.654 453.78 154.405 460.63 195.514 461.815C199.81 461.936 204.149 462 208.53 462C280.98 462 365.132 445.11 449.798 413.698C460.523 409.724 471.248 405.513 481.966 401.075C582.403 359.473 669.588 302.794 727.459 241.476C750.215 217.364 767.455 193.573 778.88 170.532C781.634 164.987 784.046 159.493 786.115 154.048C797.269 124.713 798.054 98.0748 788.442 74.8692V74.8692Z" fill="url(#paint15_radial_4_179)"/>
<path d="M788.442 74.8692C778.837 51.6708 759.442 33.3889 730.813 20.5373C703.383 8.2209 668.625 1.37054 627.515 0.185994C543.242 -2.24731 441.506 19.3171 341.07 60.9259C333.849 63.9158 326.692 66.9842 319.613 70.1311L329.624 70.1596C333.92 68.2972 338.252 66.4633 342.619 64.6579C548.394 -20.572 746.719 -15.2987 784.71 76.4177C795.713 102.977 792.081 133.911 776.368 166.536C737.842 246.585 626.616 336.789 480.418 397.343C466.275 403.201 452.117 408.653 437.981 413.698C352.216 444.325 267.507 459.845 195.636 457.769C155.054 456.599 120.824 449.87 93.8791 437.774C66.2136 425.358 47.5249 407.797 38.3269 385.583C30.028 365.539 30.0565 343.004 37.3279 319.128L34.2238 315.624C25.7037 341.941 25.8178 365.967 34.5877 387.132C44.1997 410.33 63.5876 428.612 92.2236 441.464C119.654 453.78 154.405 460.63 195.514 461.815C199.81 461.936 204.149 462 208.53 462C280.98 462 365.132 445.11 449.798 413.698C460.523 409.724 471.248 405.513 481.966 401.075C582.403 359.473 669.588 302.794 727.459 241.476C750.215 217.364 767.455 193.573 778.88 170.532C781.634 164.987 784.046 159.493 786.115 154.048C797.269 124.713 798.054 98.0748 788.442 74.8692V74.8692Z" fill="url(#paint16_radial_4_179)"/>
</g>
<defs>
<linearGradient id="paint0_linear_4_179" x1="411.379" y1="215.858" x2="411.379" y2="391.398" gradientUnits="userSpaceOnUse">
<stop stop-color="#D9D9D9"/>
<stop offset="1" stop-color="#D9D9D9" stop-opacity="0"/>
</linearGradient>
<linearGradient id="paint1_linear_4_179" x1="0" y1="231" x2="823.035" y2="231" gradientUnits="userSpaceOnUse">
<stop stop-color="#996DFF"/>
<stop offset="0.5" stop-color="#35E8B3"/>
<stop offset="1" stop-color="#E2D45C"/>
</linearGradient>
<linearGradient id="paint2_linear_4_179" x1="411.514" y1="265.394" x2="411.514" y2="393.182" gradientUnits="userSpaceOnUse">
<stop stop-color="#28203E"/>
<stop offset="1" stop-color="#121214" stop-opacity="0"/>
</linearGradient>
<linearGradient id="paint3_linear_4_179" x1="83.133" y1="176.182" x2="83.133" y2="226.539" gradientUnits="userSpaceOnUse">
<stop stop-color="#A9A9AD"/>
<stop offset="1" stop-color="#A9A9AD" stop-opacity="0"/>
</linearGradient>
<linearGradient id="paint4_linear_4_179" x1="179.024" y1="176.181" x2="179.024" y2="226.538" gradientUnits="userSpaceOnUse">
<stop stop-color="#A9A9AD"/>
<stop offset="1" stop-color="#A9A9AD" stop-opacity="0"/>
</linearGradient>
<linearGradient id="paint5_linear_4_179" x1="289.316" y1="176.181" x2="289.316" y2="226.538" gradientUnits="userSpaceOnUse">
<stop stop-color="#A9A9AD"/>
<stop offset="1" stop-color="#A9A9AD" stop-opacity="0"/>
</linearGradient>
<linearGradient id="paint6_linear_4_179" x1="404.693" y1="176.182" x2="404.693" y2="226.539" gradientUnits="userSpaceOnUse">
<stop stop-color="#A9A9AD"/>
<stop offset="1" stop-color="#A9A9AD" stop-opacity="0"/>
</linearGradient>
<linearGradient id="paint7_linear_4_179" x1="517.91" y1="176.181" x2="517.91" y2="226.539" gradientUnits="userSpaceOnUse">
<stop stop-color="#A9A9AD"/>
<stop offset="1" stop-color="#A9A9AD" stop-opacity="0"/>
</linearGradient>
<linearGradient id="paint8_linear_4_179" x1="613.866" y1="176.181" x2="613.866" y2="226.538" gradientUnits="userSpaceOnUse">
<stop stop-color="#A9A9AD"/>
<stop offset="1" stop-color="#A9A9AD" stop-opacity="0"/>
</linearGradient>
<linearGradient id="paint9_linear_4_179" x1="713.24" y1="176.182" x2="713.24" y2="226.539" gradientUnits="userSpaceOnUse">
<stop stop-color="#A9A9AD"/>
<stop offset="1" stop-color="#A9A9AD" stop-opacity="0"/>
</linearGradient>
<linearGradient id="paint10_linear_4_179" x1="746.762" y1="330.745" x2="190.883" y2="333.599" gradientUnits="userSpaceOnUse">
<stop stop-color="#996DFF"/>
<stop offset="0.5" stop-color="#35E8B3"/>
<stop offset="1" stop-color="#E2D45C"/>
</linearGradient>
<radialGradient id="paint11_radial_4_179" cx="0" cy="0" r="1" gradientUnits="userSpaceOnUse" gradientTransform="translate(406.439 422.188) rotate(15.7611) scale(373.674 620.516)">
<stop stop-color="#171226"/>
<stop offset="1" stop-color="#171226" stop-opacity="0"/>
</radialGradient>
<radialGradient id="paint12_radial_4_179" cx="0" cy="0" r="1" gradientUnits="userSpaceOnUse" gradientTransform="translate(502.251 72.1879) rotate(-157.036) scale(84.1025 139.659)">
<stop stop-color="#261945"/>
<stop offset="1" stop-color="#261945" stop-opacity="0"/>
</radialGradient>
<radialGradient id="paint13_radial_4_179" cx="0" cy="0" r="1" gradientUnits="userSpaceOnUse" gradientTransform="translate(789.689 309.75) rotate(76.7293) scale(95.2947 158.245)">
<stop stop-color="#191326"/>
<stop offset="1" stop-color="#191326" stop-opacity="0"/>
</radialGradient>
<linearGradient id="paint14_linear_4_179" x1="432.688" y1="51.1879" x2="556.938" y2="366.188" gradientUnits="userSpaceOnUse">
<stop stop-color="#996DFF"/>
<stop offset="0.5" stop-color="#35E8B3"/>
<stop offset="1" stop-color="#E2D45C"/>
</linearGradient>
<radialGradient id="paint15_radial_4_179" cx="0" cy="0" r="1" gradientUnits="userSpaceOnUse" gradientTransform="translate(311.938 79.1879) rotate(-19.3523) scale(190.117 315.704)">
<stop stop-color="#171225"/>
<stop offset="1" stop-color="#171225" stop-opacity="0"/>
</radialGradient>
<radialGradient id="paint16_radial_4_179" cx="0" cy="0" r="1" gradientUnits="userSpaceOnUse" gradientTransform="translate(34.5627 314.125) rotate(67.4706) scale(127.885 212.363)">
<stop stop-color="#191327"/>
<stop offset="1" stop-color="#191327" stop-opacity="0"/>
</radialGradient>
<clipPath id="clip0_4_179">
<rect width="823.036" height="462" fill="white"/>
</clipPath>
</defs>
</svg>
